<?xml version="1.0" encoding="UTF-8" ?>
<!DOCTYPE svg PUBLIC "-//W3C//DTD SVG 1.1//EN" "http://www.w3.org/Graphics/SVG/1.1/DTD/svg11.dtd">
<svg width="320pt" height="320pt" viewBox="0 0 320 320" version="1.1" xmlns="http://www.w3.org/2000/svg">
<g>
<path fill="transparent" opacity="1.00" d=" M 0.00 0.00 L 320.00 0.00 L 320.00 320.00 L 0.00 320.00 L 0.00 0.00 M 146.01 24.02 C 115.43 26.88 86.07 40.66 64.17 62.18 C 41.68 83.99 27.10 113.82 23.93 145.01 C 21.68 163.63 23.86 182.66 29.44 200.53 C 39.28 232.07 61.19 259.55 89.54 276.46 C 96.27 280.38 103.17 284.14 110.65 286.40 C 125.12 251.24 139.44 216.03 153.79 180.83 C 154.97 177.71 156.30 174.65 157.84 171.69 C 157.80 172.95 157.66 174.20 157.52 175.45 C 145.80 212.75 133.99 250.04 122.36 287.37 C 121.79 288.86 121.90 291.02 123.96 291.03 C 140.70 295.62 158.39 296.79 175.61 294.67 C 204.04 291.37 231.22 278.64 252.11 259.11 C 267.96 244.30 280.37 225.68 287.49 205.16 C 272.90 200.40 258.17 196.10 243.56 191.39 C 237.95 189.47 231.89 190.22 226.16 188.86 C 202.49 183.94 179.33 176.85 156.22 169.81 C 136.64 163.28 116.96 156.99 97.87 149.14 C 93.05 147.13 88.23 145.04 83.89 142.12 C 79.82 139.28 74.88 138.28 70.26 136.72 C 56.45 132.25 42.59 127.93 28.84 123.29 C 31.59 123.75 34.34 124.30 36.99 125.18 C 49.33 129.26 61.81 132.93 74.20 136.84 C 78.09 138.05 81.94 139.52 86.02 139.98 C 95.06 140.95 103.91 143.14 112.73 145.30 C 126.10 148.87 139.48 152.46 152.71 156.54 C 155.63 157.39 158.66 158.30 161.74 157.97 C 163.02 156.66 163.59 154.88 164.17 153.20 C 176.38 114.11 188.66 75.03 200.97 35.97 C 201.41 34.06 201.97 32.19 202.43 30.28 C 184.28 24.60 164.99 21.79 146.01 24.02 M 205.34 32.31 C 196.55 59.71 186.55 86.72 178.21 114.25 C 179.29 111.93 180.27 109.57 181.14 107.17 C 189.80 81.95 199.22 57.00 207.80 31.75 C 207.18 31.89 205.96 32.17 205.34 32.31 M 163.50 158.37 C 168.15 161.75 173.84 163.01 179.14 164.98 C 192.47 169.43 205.74 174.05 218.83 179.16 C 224.43 181.42 230.07 183.69 235.32 186.71 C 241.14 190.23 247.93 191.49 254.28 193.74 C 265.49 197.12 276.47 201.29 287.81 204.23 C 292.25 192.00 294.77 179.03 295.19 166.03 C 294.84 159.38 295.53 152.70 294.80 146.06 C 292.97 127.45 287.18 109.25 278.03 92.94 C 263.68 67.24 240.72 46.59 213.82 34.71 C 197.01 75.91 179.98 117.03 163.50 158.37 M 105.79 146.25 C 111.39 148.64 117.23 150.49 123.20 151.71 C 133.74 153.66 144.06 156.60 154.27 159.83 C 156.28 160.61 158.43 160.43 160.48 159.91 C 155.52 157.46 150.01 156.58 144.68 155.28 C 131.69 152.42 119.05 147.87 105.79 146.25 M 106.72 148.90 C 110.07 151.28 113.89 152.82 117.68 154.32 C 130.27 159.38 143.10 163.80 155.96 168.07 C 159.58 169.27 163.21 170.56 167.02 171.02 C 162.45 168.44 157.24 167.42 152.35 165.65 C 142.82 162.37 133.20 159.21 124.04 154.96 C 118.60 152.13 112.78 149.93 106.72 148.90 M 163.34 160.30 C 164.54 161.89 165.75 163.66 167.82 164.14 C 176.92 167.24 186.05 170.31 194.87 174.14 C 200.47 176.60 206.27 178.62 212.23 179.97 C 201.97 174.15 190.32 171.48 179.73 166.37 C 174.44 163.94 169.04 161.60 163.34 160.30 M 154.26 161.29 C 154.78 161.81 154.78 161.81 154.26 161.29 M 150.99 162.94 C 154.00 164.39 157.07 165.74 160.28 166.70 C 167.56 168.94 174.68 172.00 182.28 172.98 C 177.76 170.67 172.78 169.56 167.97 168.05 C 162.30 166.38 156.75 164.31 150.99 162.94 M 167.02 171.02 C 171.95 173.59 177.48 174.60 182.75 176.24 C 194.12 179.27 205.45 183.12 217.28 183.85 C 209.67 179.77 200.97 178.93 192.62 177.38 C 183.95 175.80 175.75 172.20 167.02 171.02 M 143.07 213.30 C 141.63 216.32 146.41 213.32 143.07 213.30 M 142.08 216.30 C 140.60 219.30 145.41 216.36 142.08 216.30 M 137.31 230.28 C 132.08 245.33 126.61 260.29 121.31 275.31 C 119.64 279.97 117.71 284.56 116.73 289.44 C 118.45 288.97 119.44 287.55 119.88 285.91 C 125.82 267.90 131.86 249.92 137.93 231.95 C 139.39 227.56 141.07 223.23 141.98 218.69 C 139.97 222.35 138.63 226.33 137.31 230.28 Z" />
</g>
<g >
<path fill="#000" opacity="1.00" d=" M 146.01 24.02 C 164.99 21.79 184.28 24.60 202.43 30.28 C 201.97 32.19 201.41 34.06 200.97 35.97 C 188.66 75.03 176.38 114.11 164.17 153.20 C 163.59 154.88 163.02 156.66 161.74 157.97 C 158.66 158.30 155.63 157.39 152.71 156.54 C 139.48 152.46 126.10 148.87 112.73 145.30 C 103.91 143.14 95.06 140.95 86.02 139.98 C 81.94 139.52 78.09 138.05 74.20 136.84 C 61.81 132.93 49.33 129.26 36.99 125.18 C 34.34 124.30 31.59 123.75 28.84 123.29 C 42.59 127.93 56.45 132.25 70.26 136.72 C 74.88 138.28 79.82 139.28 83.89 142.12 C 88.23 145.04 93.05 147.13 97.87 149.14 C 116.96 156.99 136.64 163.28 156.22 169.81 C 179.33 176.85 202.49 183.94 226.16 188.86 C 231.89 190.22 237.95 189.47 243.56 191.39 C 258.17 196.10 272.90 200.40 287.49 205.16 C 280.37 225.68 267.96 244.30 252.11 259.11 C 231.22 278.64 204.04 291.37 175.61 294.67 C 158.39 296.79 140.70 295.62 123.96 291.03 C 121.90 291.02 121.79 288.86 122.36 287.37 C 133.99 250.04 145.80 212.75 157.52 175.45 C 157.66 174.20 157.80 172.95 157.84 171.69 C 156.30 174.65 154.97 177.71 153.79 180.83 C 139.44 216.03 125.12 251.24 110.65 286.40 C 103.17 284.14 96.27 280.38 89.54 276.46 C 61.19 259.55 39.28 232.07 29.44 200.53 C 23.86 182.66 21.68 163.63 23.93 145.01 C 27.10 113.82 41.68 83.99 64.17 62.18 C 86.07 40.66 115.43 26.88 146.01 24.02 Z" />
<path fill="#000" opacity="1.00" d=" M 205.34 32.31 C 205.96 32.17 207.18 31.89 207.80 31.75 C 199.22 57.00 189.80 81.95 181.14 107.17 C 180.27 109.57 179.29 111.93 178.21 114.25 C 186.55 86.72 196.55 59.71 205.34 32.31 Z" />
<path fill="#000" opacity="1.00" d=" M 163.50 158.37 C 179.98 117.03 197.01 75.91 213.82 34.71 C 240.72 46.59 263.68 67.24 278.03 92.94 C 287.18 109.25 292.97 127.45 294.80 146.06 C 295.53 152.70 294.84 159.38 295.19 166.03 C 294.77 179.03 292.25 192.00 287.81 204.23 C 276.47 201.29 265.49 197.12 254.28 193.74 C 247.93 191.49 241.14 190.23 235.32 186.71 C 230.07 183.69 224.43 181.42 218.83 179.16 C 205.74 174.05 192.47 169.43 179.14 164.98 C 173.84 163.01 168.15 161.75 163.50 158.37 Z" />
<path fill="#000" opacity="1.00" d=" M 105.79 146.25 C 119.05 147.87 131.69 152.42 144.68 155.28 C 150.01 156.58 155.52 157.46 160.48 159.91 C 158.43 160.43 156.28 160.61 154.27 159.83 C 144.06 156.60 133.74 153.66 123.20 151.71 C 117.23 150.49 111.39 148.64 105.79 146.25 Z" />
<path fill="#000" opacity="1.00" d=" M 106.72 148.90 C 112.78 149.93 118.60 152.13 124.04 154.96 C 133.20 159.21 142.82 162.37 152.35 165.65 C 157.24 167.42 162.45 168.44 167.02 171.02 C 163.21 170.56 159.58 169.27 155.96 168.07 C 143.10 163.80 130.27 159.38 117.68 154.32 C 113.89 152.82 110.07 151.28 106.72 148.90 Z" />
<path fill="#000" opacity="1.00" d=" M 163.34 160.30 C 169.04 161.60 174.44 163.94 179.73 166.37 C 190.32 171.48 201.97 174.15 212.23 179.97 C 206.27 178.62 200.47 176.60 194.87 174.14 C 186.05 170.31 176.92 167.24 167.82 164.14 C 165.75 163.66 164.54 161.89 163.34 160.30 Z" />
<path fill="#000" opacity="1.00" d=" M 154.26 161.29 C 154.78 161.81 154.78 161.81 154.26 161.29 Z" />
<path fill="#000" opacity="1.00" d=" M 150.99 162.94 C 156.75 164.31 162.30 166.38 167.97 168.05 C 172.78 169.56 177.76 170.67 182.28 172.98 C 174.68 172.00 167.56 168.94 160.28 166.70 C 157.07 165.74 154.00 164.39 150.99 162.94 Z" />
<path fill="#000" opacity="1.00" d=" M 167.02 171.02 C 175.75 172.20 183.95 175.80 192.62 177.38 C 200.97 178.93 209.67 179.77 217.28 183.85 C 205.45 183.12 194.12 179.27 182.75 176.24 C 177.48 174.60 171.95 173.59 167.02 171.02 Z" />
<path fill="#000" opacity="1.00" d=" M 143.07 213.30 C 146.41 213.32 141.63 216.32 143.07 213.30 Z" />
<path fill="#000" opacity="1.00" d=" M 142.08 216.30 C 145.41 216.36 140.60 219.30 142.08 216.30 Z" />
<path fill="#000" opacity="1.00" d=" M 137.31 230.28 C 138.63 226.33 139.97 222.35 141.98 218.69 C 141.07 223.23 139.39 227.56 137.93 231.95 C 131.86 249.92 125.82 267.90 119.88 285.91 C 119.44 287.55 118.45 288.97 116.73 289.44 C 117.71 284.56 119.64 279.97 121.31 275.31 C 126.61 260.29 132.08 245.33 137.31 230.28 Z" />
</g>
</svg>
